<?xml version="1.0" standalone="no"?>
<!DOCTYPE svg PUBLIC "-//W3C//DTD SVG 20010904//EN"
 "http://www.w3.org/TR/2001/REC-SVG-20010904/DTD/svg10.dtd">
<svg version="1.0" xmlns="http://www.w3.org/2000/svg"
 width="576.000000pt" height="576.000000pt" viewBox="0 0 576.000000 576.000000"
 preserveAspectRatio="xMidYMid meet">
<metadata>
Created by potrace 1.14, written by Peter Selinger 2001-2017
</metadata>
<g transform="translate(0.000000,576.000000) scale(0.100000,-0.100000)"
fill="#000000" stroke="none">
<path d="M0 2880 l0 -2880 2880 0 2880 0 0 2880 0 2880 -2880 0 -2880 0 0
-2880z m2951 1231 l66 -38 22 43 c14 30 27 44 41 44 11 0 20 -6 21 -12 0 -7 2
-22 4 -33 1 -11 6 -91 9 -177 l6 -158 -24 0 c-19 0 -26 7 -31 33 -12 57 -71
173 -109 215 -48 53 -111 82 -180 82 -126 0 -215 -86 -250 -242 -32 -146 -26
-350 15 -460 26 -70 89 -144 144 -169 45 -21 148 -25 207 -9 86 24 162 115
191 230 11 44 19 56 37 58 22 4 22 2 15 -44 -16 -107 -94 -227 -175 -269 -114
-59 -259 -57 -382 6 -102 52 -203 198 -228 328 -43 231 71 496 251 585 114 55
241 50 350 -13z m-971 16 c64 -19 130 -71 154 -121 22 -47 21 -130 -4 -181
-21 -44 -79 -91 -145 -120 l-40 -17 62 -19 c106 -33 184 -108 198 -190 24
-143 -98 -265 -290 -287 -33 -4 -172 -7 -310 -6 -248 1 -250 1 -253 22 -3 20
1 22 40 23 56 1 76 5 93 19 21 18 22 796 1 825 -10 13 -30 20 -75 23 -55 4
-61 7 -61 26 l0 22 288 -1 c233 -2 297 -5 342 -18z m1568 8 c7 -7 186 -471
281 -729 6 -14 22 21 60 130 28 82 88 253 132 379 l80 230 157 -1 c86 -1 160
-2 165 -3 4 0 7 -10 7 -21 0 -17 -7 -20 -42 -21 -60 -1 -91 -8 -100 -22 -4 -6
-8 -193 -8 -413 0 -340 2 -403 15 -414 8 -6 42 -14 75 -17 55 -5 61 -8 58 -27
-3 -21 -7 -21 -220 -21 l-218 0 0 22 c0 20 5 23 43 24 23 0 51 2 61 4 47 9 46
6 44 440 l-3 410 -154 -445 c-85 -245 -159 -448 -164 -451 -30 -21 -45 10
-206 439 l-166 441 -3 -371 c-2 -343 -1 -373 16 -402 20 -34 50 -52 97 -59 23
-3 31 -9 33 -28 l3 -24 -178 0 -178 0 0 25 c0 21 6 25 45 32 26 5 54 18 70 33
l25 25 3 387 c2 232 -1 390 -7 396 -5 5 -39 12 -75 14 -59 5 -66 8 -66 27 0
21 3 21 155 21 89 0 158 -4 163 -10z m-2102 -1675 c37 -47 166 -215 288 -374
l221 -289 3 289 c2 247 0 295 -14 332 -17 44 -51 70 -99 74 -21 2 -25 7 -23
28 l3 25 158 0 c87 0 163 -3 169 -6 16 -10 5 -42 -16 -45 -49 -7 -66 -16 -88
-47 -23 -32 -23 -33 -28 -447 l-5 -415 -30 0 c-26 0 -40 13 -115 112 -47 61
-179 235 -295 387 l-210 276 -3 -311 c-2 -260 0 -316 13 -342 19 -40 48 -59
100 -66 35 -5 40 -9 40 -31 l0 -25 -180 0 c-172 0 -180 1 -183 20 -2 16 7 24
47 38 33 11 58 29 73 50 23 32 23 35 26 386 l3 354 -27 28 c-20 21 -41 31 -76
35 -37 5 -48 11 -48 24 0 24 5 26 126 25 l105 0 65 -85z m1649 -142 l0 -123
98 -3 97 -3 0 -29 0 -29 -97 -3 -98 -3 1 -211 c0 -232 6 -257 61 -270 59 -15
115 36 128 119 8 43 19 58 40 51 12 -5 6 -74 -11 -119 -26 -73 -93 -117 -175
-117 -59 1 -104 23 -129 65 -18 29 -20 52 -20 260 l0 227 -55 0 c-50 0 -55 2
-55 23 0 17 12 27 49 43 61 27 98 85 114 179 9 55 14 65 32 65 20 0 20 -5 20
-122z m-495 -124 c71 -21 147 -97 175 -174 28 -79 26 -207 -4 -277 -26 -60
-92 -125 -154 -154 -48 -21 -140 -25 -199 -7 -49 14 -120 76 -153 131 -33 59
-50 162 -37 236 35 197 190 299 372 245z m1197 1 c94 -28 169 -134 180 -253
l5 -57 -213 0 -214 0 2 -61 c2 -71 28 -132 70 -162 59 -42 140 -48 204 -16 27
13 109 100 109 114 0 5 9 6 20 3 27 -7 25 -23 -9 -70 -61 -84 -135 -122 -241
-122 -164 -1 -281 127 -281 308 -1 234 164 376 368 316z m647 -21 c36 -18 37
-18 52 4 8 12 24 22 35 22 16 0 19 -7 19 -42 0 -24 3 -73 7 -110 6 -64 5 -68
-15 -68 -15 0 -27 13 -42 47 -37 84 -88 123 -163 125 -72 2 -84 -1 -116 -31
-43 -40 -43 -89 -1 -124 35 -30 36 -30 163 -56 54 -11 112 -28 130 -38 74 -44
105 -140 68 -217 -53 -108 -196 -149 -320 -91 l-54 26 -28 -27 c-41 -39 -59
-27 -59 39 0 30 -3 81 -6 114 -6 55 -5 60 14 65 18 5 26 -4 54 -60 54 -107
130 -149 238 -130 77 13 122 87 90 147 -12 24 -45 36 -160 61 -159 35 -208 70
-225 163 -15 81 60 189 142 202 21 4 42 8 48 9 18 5 92 -13 129 -30z"/>
<path d="M1683 4094 c-41 -10 -44 -23 -41 -210 l3 -179 105 1 c127 0 150 6
193 44 43 37 61 97 55 185 -7 114 -58 154 -205 160 -49 2 -98 1 -110 -1z"/>
<path d="M1640 3459 c0 -243 -9 -230 155 -226 136 4 189 24 224 88 48 85 36
211 -27 275 -46 46 -85 56 -224 58 l-128 2 0 -197z"/>
<path d="M2466 2155 c-51 -18 -70 -37 -97 -98 -19 -44 -23 -70 -23 -162 0 -67
5 -126 13 -150 54 -161 220 -179 287 -31 42 94 40 294 -4 370 -37 63 -112 93
-176 71z"/>
<path d="M3660 2163 c-56 -20 -110 -118 -110 -200 l0 -33 139 0 c133 0 141 1
155 22 35 49 1 153 -63 195 -32 22 -86 29 -121 16z"/>
</g>
</svg>
